<?xml version="1.0" standalone="no"?>
<!DOCTYPE svg PUBLIC "-//W3C//DTD SVG 20010904//EN"
 "http://www.w3.org/TR/2001/REC-SVG-20010904/DTD/svg10.dtd">
<svg version="1.0" xmlns="http://www.w3.org/2000/svg"
 width="128.000000pt" height="128.000000pt" viewBox="0 0 128.000000 128.000000"
 preserveAspectRatio="xMidYMid meet">
<metadata>
Created by potrace 1.14, written by Peter Selinger 2001-2017
</metadata>
<g transform="translate(0.000000,128.000000) scale(0.100000,-0.100000)"
fill="#000000" stroke="none">
<path d="M583 1123 c-10 -16 -20 -30 -23 -33 -8 -7 -4 -112 5 -134 7 -15 1
-13 -33 9 -66 44 -158 31 -274 -38 -121 -72 -155 -163 -110 -293 39 -113 125
-207 107 -116 -13 60 -14 159 -3 199 23 84 110 173 170 173 15 0 28 -2 28 -5
0 -2 -13 -24 -30 -47 -51 -75 -74 -211 -50 -300 9 -30 8 -44 -5 -68 -38 -73
-11 -171 69 -254 82 -84 176 -127 128 -58 -29 41 -48 82 -65 139 l-15 51 55
-25 c65 -30 139 -33 198 -9 20 9 41 16 45 16 13 0 -19 -111 -45 -157 -14 -25
-19 -45 -14 -49 21 -13 109 65 154 136 39 62 50 112 37 173 -9 40 -8 63 2 101
27 102 -2 257 -59 318 -29 32 -30 34 -9 42 22 8 93 -25 128 -60 61 -61 88
-174 68 -284 -19 -101 18 -84 79 36 65 130 49 244 -44 313 -80 59 -191 102
-244 95 -7 -1 -22 -2 -32 -3 -11 0 -33 -12 -49 -26 l-30 -25 0 42 c0 62 -6
116 -15 125 -5 4 -5 -1 -2 -12 3 -11 -1 -8 -10 7 -31 54 -85 64 -112 21z m75
-7 c8 -5 9 -13 2 -25 -11 -22 -4 -31 24 -31 19 0 19 -1 -2 -21 -12 -11 -19
-25 -16 -31 4 -7 2 -8 -4 -4 -8 5 -9 13 -2 26 7 13 6 21 -5 30 -7 6 -11 18 -8
26 7 19 -27 31 -37 13 -11 -17 -22 -7 -15 12 6 15 42 18 63 5z m-42 -70 c0
-29 -2 -32 -12 -18 -9 12 -9 21 0 34 6 10 11 18 11 18 1 0 1 -15 1 -34z m-11
-56 c-3 -5 -1 -19 5 -30 7 -13 7 -20 0 -20 -5 0 -10 6 -10 14 0 8 -6 17 -12
19 -10 4 -9 8 2 16 19 13 23 14 15 1z m82 -31 c-6 -10 -16 -19 -21 -19 -4 0
-3 7 4 15 6 8 9 19 5 24 -3 7 0 8 9 5 12 -5 13 -9 3 -25z m-255 -21 c-8 -8 -9
-4 -5 13 4 13 8 18 11 10 2 -7 -1 -18 -6 -23z m425 10 c2 -17 0 -19 -7 -8 -5
8 -6 18 -4 22 8 12 10 10 11 -14z m-354 -39 c-38 -19 -45 -18 -49 6 -1 8 4 11
11 8 8 -2 20 5 27 16 11 19 14 19 30 4 16 -15 15 -17 -19 -34z m298 21 c5 0
12 0 15 1 13 2 23 -26 12 -32 -12 -8 -78 20 -78 32 0 5 8 12 18 18 12 7 18 6
20 -5 2 -8 8 -14 13 -14z m103 -5 c-23 -17 -34 -19 -34 -5 0 6 7 10 15 10 9 0
19 8 22 17 5 12 8 13 11 4 2 -7 -4 -19 -14 -26z m-527 3 c-3 -8 -6 -5 -6 6 -1
11 2 17 5 13 3 -3 4 -12 1 -19z m38 -9 c11 -17 -1 -21 -15 -4 -8 9 -8 15 -2
15 6 0 14 -5 17 -11z m563 -6 c-2 -11 6 -22 20 -28 12 -5 25 -18 28 -28 5 -15
13 -18 38 -14 17 3 25 3 19 0 -18 -7 -16 -42 2 -49 8 -4 15 -17 15 -30 0 -14
7 -27 15 -30 14 -6 13 -8 -2 -19 -14 -10 -15 -16 -5 -28 10 -12 9 -16 -4 -21
-13 -5 -14 -9 -4 -20 9 -11 8 -21 -5 -45 -8 -17 -17 -31 -18 -31 -1 0 -2 17
-2 38 2 36 -5 75 -19 119 -6 18 -4 22 7 17 8 -3 18 0 22 6 9 15 -12 38 -33 35
-9 -1 -11 0 -4 2 6 3 12 13 12 24 0 22 -35 27 -44 7 -3 -7 -4 1 -3 17 2 27 -1
30 -26 28 -23 -2 -26 1 -17 12 15 17 -3 29 -31 20 -15 -5 -19 -4 -15 4 4 6 16
11 27 11 10 0 19 5 19 10 0 6 2 10 5 10 3 0 5 -8 3 -17z m-610 -24 c4 -11 2
-12 -9 -1 -22 20 -39 14 -39 -15 0 -20 -3 -24 -9 -14 -5 8 -16 11 -26 7 -13
-5 -15 -13 -10 -34 5 -22 4 -25 -6 -14 -19 18 -39 15 -39 -8 0 -11 5 -20 10
-20 6 0 10 -4 10 -10 0 -5 -7 -7 -15 -4 -8 4 -21 2 -28 -4 -8 -7 -18 -6 -32 5
-16 13 -17 15 -2 10 38 -13 62 21 37 51 -7 8 -7 9 1 3 6 -5 19 -6 30 -4 19 5
22 13 20 43 0 8 2 10 5 4 11 -24 49 -1 46 28 -2 13 52 -8 56 -23z m363 20 c80
-24 138 -99 158 -202 4 -25 5 -44 1 -42 -4 3 -10 23 -14 46 -20 122 -103 193
-231 193 -117 1 -202 -62 -236 -174 -4 -14 -8 -18 -8 -8 -2 28 35 101 65 132
60 59 171 83 265 55z m-152 -53 c-9 -20 -19 -26 -36 -24 -35 4 -32 18 6 39 42
22 46 20 30 -15z m185 -2 c16 -11 17 -14 4 -19 -28 -11 -67 11 -68 38 0 10 39
-1 64 -19z m-73 -17 c18 -32 -7 -77 -42 -77 -38 0 -66 49 -47 79 17 27 75 26
89 -2z m-112 -43 c21 -27 19 -42 -10 -85 -14 -20 -27 -26 -55 -26 -30 0 -40 6
-55 31 -23 38 -23 34 1 74 17 27 25 32 59 32 31 0 44 -6 60 -26z m246 -14 c8
-16 15 -35 15 -43 0 -26 -26 -49 -62 -54 -32 -4 -39 0 -62 30 -30 40 -31 41
-11 70 11 17 25 23 60 24 40 2 46 -1 60 -27z m-611 -36 c12 -5 14 -17 10 -62
-3 -32 -2 -80 4 -109 11 -62 1 -60 -34 8 -19 38 -22 54 -14 64 8 10 7 16 -7
24 -11 6 -13 11 -5 11 8 0 12 9 11 23 -3 20 6 47 16 47 2 0 10 -3 19 -6z m485
-38 c23 -42 -15 -117 -56 -110 -7 1 -17 2 -23 3 -5 0 -18 18 -29 39 -17 33
-18 40 -5 65 13 23 21 27 58 27 35 0 45 -4 55 -24z m-263 -24 c-18 -16 -19
-16 -12 1 3 10 6 24 6 30 0 8 4 7 12 -1 10 -9 8 -16 -6 -30z m424 -17 c-1 -19
-1 -19 -15 -2 -7 11 -11 26 -8 34 5 12 7 12 14 1 5 -7 9 -22 9 -33z m-298 -27
c10 -10 18 -26 18 -36 0 -18 -26 -61 -44 -75 -7 -4 -3 -9 10 -13 55 -15 56
-97 1 -113 -29 -8 -35 -5 -58 22 -31 36 -27 64 12 84 24 13 24 13 -8 13 -58 0
-95 79 -56 122 22 24 99 22 125 -4z m282 0 c20 -28 20 -51 0 -90 -9 -16 -11
-27 -5 -24 6 4 6 -5 -2 -26 -10 -29 -12 -30 -15 -10 -3 18 -10 22 -43 22 -34
0 -42 4 -64 40 -24 38 -24 42 -10 69 17 34 25 37 82 39 33 2 45 -3 57 -20z
m56 -3 c0 -8 -2 -15 -4 -15 -2 0 -6 7 -10 15 -3 8 -1 15 4 15 6 0 10 -7 10
-15z m0 -34 c0 -6 -4 -12 -8 -15 -5 -3 -9 1 -9 9 0 8 4 15 9 15 4 0 8 -4 8 -9z
m-207 -48 c8 -18 7 -31 -6 -58 -14 -28 -22 -35 -47 -35 -23 0 -33 7 -45 30
-20 38 -19 56 3 78 26 26 80 18 95 -15z m169 -76 c-77 -164 -226 -211 -356
-112 -19 14 -42 38 -52 53 -11 18 -3 13 23 -14 34 -35 46 -41 78 -40 23 0 40
-4 42 -12 4 -9 -2 -10 -23 -2 -15 6 -29 8 -32 6 -9 -10 53 -28 99 -29 55 0
130 34 167 78 29 35 71 121 73 150 1 17 2 18 6 2 3 -10 -9 -46 -25 -80z m-408
37 c8 -21 8 -24 -3 -24 -5 0 -11 9 -14 20 -6 24 8 27 17 4z m337 -24 c25 -14
24 -41 -2 -74 -17 -22 -27 -26 -48 -21 -31 7 -51 31 -51 61 0 38 57 57 101 34z
m-357 -26 c3 -8 2 -12 -4 -9 -6 3 -10 10 -10 16 0 14 7 11 14 -7z m-11 -45
c21 -30 24 -39 13 -48 -10 -8 -12 -5 -12 12 1 17 -4 22 -22 21 -16 0 -21 4
-17 13 3 8 5 22 5 30 0 9 1 14 3 12 2 -2 15 -20 30 -40z m248 4 c19 -19 -8
-73 -36 -73 -27 0 -50 43 -36 69 11 20 54 22 72 4z m219 -18 c0 -5 -5 -3 -10
5 -5 8 -10 20 -10 25 0 6 5 3 10 -5 5 -8 10 -19 10 -25z m0 -40 c0 -21 -2 -24
-13 -13 -10 9 -11 16 -3 25 15 17 16 16 16 -12z m-170 -5 c-16 -11 -40 -13
-40 -5 0 8 44 24 50 18 2 -2 -2 -8 -10 -13z m123 -5 c-3 -8 -10 -15 -15 -15
-7 0 -6 5 1 13 6 8 7 18 3 22 -4 5 -2 5 5 1 7 -4 10 -13 6 -21z m-398 -15 c3
-5 1 -10 -4 -10 -6 0 -11 5 -11 10 0 6 2 10 4 10 3 0 8 -4 11 -10z m-23 -28
c-14 -4 -16 -32 -2 -32 5 0 13 8 19 17 5 10 12 15 15 12 3 -3 -4 -16 -15 -28
-24 -26 -26 -25 -38 16 -8 28 -7 30 12 25 12 -3 16 -7 9 -10z m451 6 c7 -20
-12 -48 -28 -42 -8 4 -15 1 -15 -6 0 -6 -5 -8 -11 -4 -8 4 -7 9 2 15 7 4 10
11 6 15 -9 9 12 34 28 34 8 0 15 -6 18 -12z m-388 -82 c0 0 6 -11 13 -23 17
-31 -2 -30 -39 1 -30 26 -28 40 5 30 12 -4 21 -7 21 -8z m337 -17 c-19 -17
-36 -29 -38 -27 -8 9 10 47 25 51 41 11 44 5 13 -24z"/>
<path d="M1076 733 c-11 -11 -6 -23 9 -23 8 0 15 4 15 9 0 13 -16 22 -24 14z"/>
<path d="M1080 680 c0 -5 5 -10 10 -10 6 0 10 5 10 10 0 6 -4 10 -10 10 -5 0
-10 -4 -10 -10z"/>
<path d="M192 719 c2 -6 8 -10 13 -10 5 0 11 4 13 10 2 6 -4 11 -13 11 -9 0
-15 -5 -13 -11z"/>
<path d="M190 681 c0 -6 5 -13 10 -16 6 -3 10 1 10 9 0 9 -4 16 -10 16 -5 0
-10 -4 -10 -9z"/>
<path d="M835 311 c-7 -12 12 -24 25 -16 11 7 4 25 -10 25 -5 0 -11 -4 -15 -9z"/>
</g>
</svg>
